<svg width="24" height="18" viewBox="0 0 24 18" fill="none" xmlns="http://www.w3.org/2000/svg">
<path d="M2.85938 0H21.1406C22.7344 0 24 1.3125 24 2.85938C24 2.90625 24 2.95312 24 3V15C24 16.6406 22.6406 18 21 18H3C1.35938 18 0 16.6406 0 15V3C0 2.95312 0 2.90625 0 2.85938C0 1.3125 1.3125 0 2.85938 0ZM21.75 6L14.4844 11.5312C13.0312 12.6562 10.9688 12.6562 9.51562 11.5312L2.25 6V15C2.25 15.4219 2.57812 15.75 3 15.75H21C21.4219 15.75 21.75 15.4219 21.75 15V6ZM2.25 2.85938C2.25 3.09375 2.34375 3.28125 2.48438 3.375L10.875 9.75C11.5312 10.2188 12.4688 10.2188 13.125 9.75L21.5156 3.375C21.6562 3.28125 21.75 3.09375 21.75 2.85938C21.75 2.53125 21.4688 2.25 21.1406 2.25H2.85938C2.53125 2.25 2.25 2.53125 2.25 2.85938Z" fill="black"/>
</svg>
