<svg width="26" height="26" viewBox="0 0 26 26" fill="none" xmlns="http://www.w3.org/2000/svg">
<path d="M14.7656 0C20.7656 0 25.6406 4.875 25.6406 10.875C25.6406 11.4844 25.125 12 24.5156 12C23.9062 12 23.3906 11.4844 23.3906 10.875C23.3906 6.09375 19.5469 2.25 14.7656 2.25C14.1562 2.25 13.6406 1.73438 13.6406 1.125C13.6406 0.515625 14.1562 0 14.7656 0ZM15.1406 12C14.2969 12 13.6406 11.3438 13.6406 10.5C13.6406 9.65625 14.2969 9 15.1406 9C15.9844 9 16.6406 9.65625 16.6406 10.5C16.6406 11.3438 15.9844 12 15.1406 12ZM13.6406 5.625C13.6406 5.01562 14.1562 4.5 14.7656 4.5C18.2812 4.5 21.1406 7.35938 21.1406 10.875C21.1406 11.4844 20.625 12 20.0156 12C19.4062 12 18.8906 11.4844 18.8906 10.875C18.8906 8.57812 17.0625 6.75 14.7656 6.75C14.1562 6.75 13.6406 6.23438 13.6406 5.625ZM8.67188 3.42188L10.5 7.5C11.0156 8.625 10.7344 9.89062 9.75 10.6406L8.625 11.5781C9.84375 13.9219 11.7188 15.8438 14.0156 17.1094L15 15.8906C15.75 14.9531 17.0625 14.625 18.1406 15.1406L22.2188 17.0156C23.4375 17.5312 24.0469 18.9375 23.625 20.2031C22.6406 23.1562 19.7344 25.6875 16.0781 25.0312C7.96875 23.5781 2.0625 17.7188 0.609375 9.5625C0 5.95312 2.48438 3 5.4375 2.01562C6.70312 1.59375 8.10938 2.20312 8.67188 3.42188ZM6.14062 4.125C4.03125 4.82812 2.4375 6.89062 2.85938 9.14062C4.125 16.3594 9.28125 21.5156 16.5 22.8281C18.75 23.2031 20.8125 21.6094 21.5156 19.5C21.5625 19.3125 21.4688 19.125 21.2812 19.0312L17.2031 17.1562C17.0625 17.1094 16.875 17.1562 16.7344 17.2969L15.1875 19.2656C14.8594 19.6406 14.2969 19.7812 13.8281 19.5469C10.4062 17.9531 7.6875 15.1406 6.1875 11.6719C6 11.2031 6.14062 10.6875 6.51562 10.3594L8.34375 8.90625C8.48438 8.76562 8.53125 8.57812 8.48438 8.4375L6.60938 4.35938C6.51562 4.17188 6.32812 4.07812 6.14062 4.125Z" fill="black"/>
</svg>
